<svg xmlns="http://www.w3.org/2000/svg" viewBox="0 0 82.23 11.02"><title>chatplug-text</title><g id="Layer_2" data-name="Layer 2"><g id="Layer_1-2" data-name="Layer 1"><path d="M6.56,9.78a5.18,5.18,0,0,1-2.14.39,3.77,3.77,0,0,1-4-4.09A4,4,0,0,1,4.66,1.83a4.35,4.35,0,0,1,1.91.36L6.32,3a3.85,3.85,0,0,0-1.63-.33A3,3,0,0,0,1.54,6a2.93,2.93,0,0,0,3.1,3.24A4.3,4.3,0,0,0,6.35,9Z" transform="translate(-0.44 -1.53)"/><path d="M7.81,1.53h1V5.15h0a2.18,2.18,0,0,1,.76-.75,2.15,2.15,0,0,1,1.08-.29c.78,0,2,.48,2,2.48V10H11.69V6.71c0-.94-.35-1.73-1.34-1.73A1.54,1.54,0,0,0,8.93,6a1.26,1.26,0,0,0-.07.5V10h-1Z" transform="translate(-0.44 -1.53)"/><path d="M17.69,10l-.1-.73h0a2.16,2.16,0,0,1-1.77.87A1.65,1.65,0,0,1,14,8.51c0-1.4,1.24-2.18,3.48-2.16V6.23a1.19,1.19,0,0,0-1.32-1.34,2.84,2.84,0,0,0-1.51.43l-.24-.7a3.63,3.63,0,0,1,1.91-.51c1.78,0,2.21,1.21,2.21,2.38V8.66A8.34,8.34,0,0,0,18.64,10Zm-.17-3c-1.14,0-2.45.18-2.45,1.3a.93.93,0,0,0,1,1,1.45,1.45,0,0,0,1.41-1,1,1,0,0,0,.05-.33Z" transform="translate(-0.44 -1.53)"/><path d="M21.48,2.57V4.24H23V5H21.48V8.17c0,.72.2,1.13.79,1.13a1.79,1.79,0,0,0,.61-.08l.05.8a2.44,2.44,0,0,1-.94.15,1.47,1.47,0,0,1-1.14-.45,2.22,2.22,0,0,1-.41-1.51V5h-.9v-.8h.9V2.85Z" transform="translate(-0.44 -1.53)"/><path d="M24.22,2.06a11.37,11.37,0,0,1,2-.16,3.28,3.28,0,0,1,2.26.67,2.19,2.19,0,0,1,.71,1.69A2.38,2.38,0,0,1,28.57,6a3.34,3.34,0,0,1-2.47.89,3.11,3.11,0,0,1-.84-.08V10h-1Zm1,3.89a3.1,3.1,0,0,0,.87.09c1.26,0,2-.62,2-1.72s-.77-1.6-1.91-1.6a4.85,4.85,0,0,0-1,.09Z" transform="translate(-0.44 -1.53)"/><path d="M30.51,1.53h1V10h-1Z" transform="translate(-0.44 -1.53)"/><path d="M38.19,8.46c0,.6,0,1.12,0,1.58H37.3l-.06-.94h0a2.2,2.2,0,0,1-1.92,1.08c-.91,0-2-.51-2-2.55V4.24h1.05V7.45c0,1.1.34,1.86,1.29,1.86a1.55,1.55,0,0,0,1.4-1,1.73,1.73,0,0,0,.1-.54V4.24h1Z" transform="translate(-0.44 -1.53)"/><path d="M45,4.24c0,.41-.05.88-.05,1.59V9.2a3.33,3.33,0,0,1-.83,2.65,3.08,3.08,0,0,1-2.11.7A3.7,3.7,0,0,1,40,12.07l.27-.81a3.24,3.24,0,0,0,1.7.47c1.08,0,1.87-.57,1.87-2V9.05h0A2.07,2.07,0,0,1,42,10a2.6,2.6,0,0,1-2.47-2.83,2.78,2.78,0,0,1,2.62-3.08,1.93,1.93,0,0,1,1.81,1h0L44,4.24Zm-1.1,2.28a1.44,1.44,0,0,0-.06-.47,1.52,1.52,0,0,0-1.48-1.12c-1,0-1.73.85-1.73,2.2,0,1.13.59,2.09,1.72,2.09a1.54,1.54,0,0,0,1.47-1.09,2.1,2.1,0,0,0,.08-.56Z" transform="translate(-0.44 -1.53)"/><path d="M56.06,6.49C56,5.37,55.92,4,55.93,3h0c-.27.94-.61,2-1,3.06L53.45,10h-.79L51.34,6.14C51,5,50.64,4,50.42,3h0c0,1-.08,2.35-.16,3.56L50,10H49L49.59,2h1.33L52.3,5.87c.33,1,.6,1.88.81,2.73h0c.21-.82.5-1.71.86-2.73L55.44,2h1.33L57.28,10h-1Z" transform="translate(-0.44 -1.53)"/><path d="M64.17,7.09a2.84,2.84,0,0,1-2.88,3.09,2.76,2.76,0,0,1-2.79-3,2.83,2.83,0,0,1,2.88-3.08A2.74,2.74,0,0,1,64.17,7.09Zm-4.6.07c0,1.27.73,2.23,1.76,2.23s1.77-1,1.77-2.27c0-1-.5-2.22-1.75-2.22S59.57,6.06,59.57,7.16Z" transform="translate(-0.44 -1.53)"/><path d="M65.46,10c0-.39,0-1,0-1.49v-7h1V5.17h0a2.15,2.15,0,0,1,2-1.06c1.44,0,2.45,1.2,2.44,3,0,2.08-1.31,3.11-2.61,3.11a2.09,2.09,0,0,1-1.94-1.09h0l0,.95Zm1.09-2.32a1.58,1.58,0,0,0,0,.38,1.63,1.63,0,0,0,1.58,1.24c1.11,0,1.76-.9,1.76-2.23,0-1.17-.6-2.17-1.73-2.17a1.7,1.7,0,0,0-1.6,1.3,1.87,1.87,0,0,0-.06.44Z" transform="translate(-0.44 -1.53)"/><path d="M73.52,2.6a.66.66,0,1,1-1.31,0A.64.64,0,0,1,72.87,2,.63.63,0,0,1,73.52,2.6ZM72.34,10V4.24h1V10Z" transform="translate(-0.44 -1.53)"/><path d="M75.15,1.53h1V10h-1Z" transform="translate(-0.44 -1.53)"/><path d="M78.56,7.33a1.86,1.86,0,0,0,2,2,3.91,3.91,0,0,0,1.6-.3l.19.75a4.69,4.69,0,0,1-1.94.37,2.7,2.7,0,0,1-2.85-2.93c0-1.76,1-3.13,2.73-3.13a2.45,2.45,0,0,1,2.39,2.73,2.72,2.72,0,0,1,0,.49Zm3.09-.75a1.5,1.5,0,0,0-1.46-1.71,1.74,1.74,0,0,0-1.62,1.71Z" transform="translate(-0.44 -1.53)"/></g></g></svg>